<svg id="svg" version="1.1" xmlns="http://www.w3.org/2000/svg" xmlns:xlink="http://www.w3.org/1999/xlink" width="400" height="400" viewBox="0, 0, 400,400"><g id="svgg"><path id="path0" d="M123.200 89.992 C 121.110 90.160,118.770 90.567,118.000 90.896 C 117.230 91.225,115.552 91.611,114.270 91.754 C 112.989 91.897,111.279 92.349,110.470 92.758 C 109.662 93.167,108.100 93.696,107.000 93.933 C 105.900 94.171,104.287 94.733,103.415 95.182 C 102.544 95.632,101.607 96.000,101.333 96.000 C 101.059 96.000,100.172 96.450,99.362 97.000 C 98.551 97.550,97.598 98.003,97.244 98.007 C 96.612 98.014,94.034 99.554,91.937 101.177 C 91.352 101.630,90.709 102.000,90.507 102.000 C 89.459 102.000,82.374 107.677,78.275 111.800 C 75.889 114.201,71.408 119.620,70.553 121.138 C 70.139 121.874,69.320 123.314,68.733 124.338 C 66.962 127.430,64.891 131.874,64.596 133.218 C 64.443 133.914,63.991 135.230,63.592 136.142 C 63.193 137.054,62.750 138.700,62.607 139.800 C 62.465 140.900,61.986 143.410,61.544 145.378 C 60.521 149.927,60.425 160.502,61.374 164.078 C 61.706 165.330,62.181 168.025,62.429 170.065 C 62.677 172.105,63.214 174.621,63.622 175.657 C 64.030 176.692,64.485 178.498,64.632 179.670 C 64.779 180.841,65.228 182.610,65.630 183.600 C 66.032 184.590,66.565 186.194,66.813 187.164 C 67.062 188.134,67.506 189.304,67.800 189.764 C 68.094 190.224,68.546 191.410,68.804 192.400 C 69.062 193.390,69.595 194.740,69.988 195.400 C 70.381 196.060,70.914 197.261,71.172 198.068 C 71.430 198.875,71.897 199.748,72.210 200.008 C 72.523 200.268,72.892 201.086,73.031 201.826 C 73.170 202.566,73.537 203.382,73.847 203.639 C 74.156 203.895,74.776 204.847,75.225 205.753 C 75.673 206.659,76.351 207.940,76.732 208.600 C 79.037 212.597,79.835 213.907,80.509 214.800 C 80.924 215.350,81.835 216.705,82.532 217.811 C 83.955 220.069,85.848 222.615,86.900 223.687 C 87.285 224.079,87.600 224.575,87.600 224.788 C 87.600 225.236,92.775 231.441,98.656 238.045 C 104.396 244.491,114.156 253.902,120.800 259.397 C 121.790 260.216,122.888 261.182,123.240 261.543 C 123.920 262.240,124.918 263.055,129.400 266.569 C 130.940 267.777,132.650 269.127,133.200 269.569 C 135.524 271.437,137.637 273.059,138.876 273.927 C 142.664 276.579,146.339 279.253,147.455 280.170 C 148.145 280.736,148.888 281.200,149.106 281.200 C 149.324 281.200,149.737 281.483,150.024 281.829 C 150.311 282.175,151.189 282.808,151.973 283.236 C 152.758 283.664,154.210 284.640,155.200 285.405 C 156.190 286.171,157.450 286.990,157.999 287.226 C 158.549 287.462,159.326 287.952,159.726 288.314 C 160.403 288.926,161.080 289.365,164.800 291.599 C 165.570 292.062,167.190 293.052,168.400 293.800 C 174.248 297.415,189.413 306.000,189.951 306.000 C 190.136 306.000,190.925 306.432,191.703 306.960 C 192.481 307.488,193.541 308.053,194.059 308.215 C 194.576 308.377,195.424 308.841,195.943 309.246 C 198.474 311.223,198.552 310.739,198.257 294.853 C 198.111 287.014,197.980 277.270,197.966 273.200 C 197.929 262.557,197.650 262.016,191.400 260.442 C 190.410 260.193,189.016 259.632,188.300 259.196 C 187.585 258.760,186.712 258.402,186.360 258.401 C 186.007 258.401,184.873 257.950,183.838 257.400 C 182.804 256.850,181.679 256.400,181.338 256.400 C 180.997 256.400,179.881 255.959,178.859 255.420 C 177.837 254.882,175.740 253.873,174.200 253.178 C 170.459 251.492,166.636 249.577,161.800 246.968 C 159.600 245.781,157.042 244.442,156.117 243.993 C 155.191 243.544,154.328 243.007,154.200 242.800 C 154.072 242.593,153.209 242.058,152.283 241.612 C 151.358 241.166,149.790 240.272,148.800 239.624 C 147.810 238.977,146.337 238.031,145.527 237.524 C 142.142 235.402,137.119 231.885,135.239 230.321 C 134.930 230.064,133.760 229.226,132.639 228.458 C 126.430 224.209,115.016 213.543,109.024 206.391 C 107.277 204.306,105.546 202.300,105.177 201.934 C 104.809 201.568,103.674 200.038,102.656 198.534 C 101.638 197.030,100.269 195.037,99.615 194.104 C 98.960 193.171,98.124 191.821,97.756 191.104 C 97.389 190.387,96.945 189.706,96.769 189.592 C 96.594 189.478,96.075 188.578,95.615 187.592 C 95.156 186.606,94.489 185.260,94.133 184.600 C 92.630 181.811,91.688 179.725,91.422 178.600 C 91.265 177.940,90.897 177.130,90.603 176.800 C 90.308 176.470,89.766 175.030,89.398 173.600 C 89.030 172.170,88.560 170.796,88.354 170.547 C 88.148 170.297,87.717 168.767,87.397 167.147 C 87.077 165.526,86.546 163.445,86.217 162.522 C 85.888 161.599,85.433 158.868,85.205 156.452 C 84.977 154.037,84.613 151.122,84.395 149.976 C 83.900 147.362,83.896 138.335,84.390 136.199 C 84.593 135.318,84.967 132.890,85.221 130.802 C 85.475 128.714,86.002 126.375,86.393 125.603 C 86.783 124.831,87.232 123.570,87.390 122.800 C 87.549 122.030,87.943 120.982,88.267 120.472 C 88.591 119.961,89.090 118.877,89.378 118.063 C 89.865 116.681,90.652 115.338,92.889 112.068 C 97.255 105.688,105.050 99.042,112.000 95.778 C 112.770 95.416,113.709 94.846,114.086 94.511 C 114.463 94.176,115.633 93.742,116.686 93.546 C 117.872 93.325,118.847 92.863,119.250 92.330 C 119.961 91.392,128.084 91.443,130.607 92.403 C 131.206 92.630,133.339 93.097,135.348 93.439 C 137.357 93.781,139.360 94.290,139.800 94.570 C 140.240 94.850,141.320 95.311,142.200 95.595 C 143.080 95.879,144.250 96.410,144.800 96.775 C 145.350 97.140,146.288 97.648,146.885 97.904 C 149.028 98.823,153.862 102.667,157.316 106.200 C 162.245 111.241,162.437 111.472,164.600 114.984 C 165.040 115.698,166.089 117.325,166.932 118.598 C 167.774 119.872,168.634 121.294,168.842 121.757 C 169.050 122.221,169.840 123.680,170.599 125.000 C 171.358 126.320,172.264 128.030,172.612 128.800 C 173.572 130.919,175.964 135.721,176.397 136.400 C 176.608 136.730,177.060 137.630,177.401 138.400 C 179.521 143.181,182.700 146.544,187.108 148.667 L 190.200 150.156 195.690 150.113 C 201.130 150.071,201.201 150.058,203.480 148.754 C 206.847 146.828,213.774 140.314,219.807 133.400 C 224.326 128.223,234.615 118.112,237.200 116.310 C 237.750 115.926,238.830 115.159,239.600 114.605 C 244.196 111.296,245.541 110.449,249.600 108.303 C 250.590 107.780,251.760 107.152,252.200 106.908 C 254.169 105.815,258.409 104.000,258.991 104.000 C 259.343 104.000,260.363 103.627,261.256 103.172 C 263.697 101.926,269.929 101.033,272.432 101.570 C 273.536 101.806,274.932 102.000,275.535 102.000 C 276.138 102.000,277.344 102.364,278.215 102.810 C 279.087 103.255,280.514 103.813,281.386 104.048 C 282.258 104.284,283.407 104.820,283.940 105.239 C 284.472 105.657,285.129 106.000,285.399 106.000 C 285.870 106.000,286.639 106.538,290.951 109.886 C 295.579 113.478,301.026 122.120,302.231 127.780 C 302.556 129.309,303.129 131.379,303.503 132.380 C 304.522 135.104,304.474 157.981,303.441 162.400 C 303.055 164.050,302.559 167.020,302.339 169.000 C 302.119 170.980,301.604 173.259,301.195 174.064 C 300.785 174.870,300.242 176.310,299.988 177.264 C 299.734 178.219,299.294 179.270,299.010 179.600 C 298.727 179.930,298.362 180.650,298.201 181.200 C 298.039 181.750,297.510 182.740,297.024 183.400 C 296.538 184.060,296.018 184.933,295.868 185.340 C 294.877 188.022,286.288 197.514,280.431 202.400 C 279.244 203.390,277.888 204.561,277.417 205.001 C 276.947 205.442,276.120 206.114,275.581 206.495 C 275.041 206.876,273.250 208.177,271.600 209.386 C 269.950 210.595,267.520 212.299,266.200 213.173 C 264.880 214.047,263.260 215.137,262.600 215.596 C 261.940 216.055,260.500 216.988,259.400 217.669 C 258.300 218.349,256.950 219.215,256.400 219.591 C 255.850 219.968,254.787 220.593,254.038 220.981 C 253.288 221.368,252.478 221.854,252.238 222.060 C 251.845 222.396,249.690 223.766,246.531 225.689 C 245.909 226.067,245.040 226.605,244.600 226.884 C 244.160 227.162,242.886 227.967,241.770 228.670 C 240.653 229.374,239.506 230.232,239.221 230.575 C 238.935 230.919,238.490 231.200,238.231 231.200 C 236.089 231.200,226.049 240.889,224.131 244.808 C 219.262 254.755,223.903 269.103,234.043 275.450 C 237.733 277.760,245.373 281.195,246.850 281.209 C 247.373 281.214,248.579 281.571,249.531 282.003 C 250.482 282.435,252.938 283.058,254.989 283.388 C 257.039 283.718,259.228 284.183,259.855 284.421 C 260.481 284.659,264.235 285.116,268.197 285.436 C 272.159 285.756,276.480 286.204,277.800 286.431 C 279.120 286.658,285.600 286.942,292.200 287.063 C 303.906 287.276,306.309 287.178,322.800 285.816 C 326.650 285.498,331.330 285.226,333.200 285.213 C 339.265 285.168,339.173 284.873,330.504 276.573 C 322.633 269.038,322.517 268.964,320.013 269.796 C 318.965 270.144,315.788 270.685,312.954 270.999 C 310.119 271.313,306.270 271.873,304.400 272.245 C 297.918 273.533,270.611 273.298,263.000 271.889 C 254.649 270.342,253.694 270.146,251.200 269.469 C 249.990 269.140,248.280 268.696,247.400 268.482 C 246.520 268.267,244.270 267.426,242.400 266.612 C 240.530 265.798,238.436 264.964,237.746 264.760 C 237.057 264.555,236.067 264.055,235.546 263.649 C 235.026 263.243,234.150 262.773,233.600 262.606 C 231.785 262.054,231.505 261.609,232.239 260.444 C 233.549 258.364,241.081 252.000,242.233 252.000 C 242.371 252.000,242.988 251.595,243.603 251.100 C 244.219 250.605,245.657 249.660,246.800 249.000 C 247.943 248.340,249.355 247.436,249.939 246.991 C 250.522 246.546,251.630 245.868,252.400 245.484 C 253.170 245.100,254.610 244.250,255.600 243.594 C 256.590 242.939,257.944 242.147,258.608 241.834 C 259.273 241.522,260.155 240.891,260.570 240.433 C 260.985 239.975,261.521 239.597,261.762 239.593 C 262.167 239.586,264.077 238.419,267.000 236.393 C 267.660 235.936,269.280 234.846,270.600 233.971 C 283.673 225.308,300.546 210.161,306.808 201.467 C 307.574 200.404,308.695 198.940,309.300 198.214 C 309.905 197.488,310.400 196.715,310.400 196.496 C 310.400 196.277,310.684 195.862,311.031 195.574 C 311.612 195.092,312.638 193.360,314.542 189.646 C 314.949 188.851,315.518 187.930,315.804 187.600 C 316.091 187.270,316.524 186.256,316.766 185.347 C 317.008 184.437,317.460 183.482,317.772 183.224 C 318.083 182.965,318.459 181.999,318.607 181.077 C 318.755 180.155,319.216 178.809,319.632 178.086 C 320.049 177.364,320.577 175.564,320.807 174.086 C 321.037 172.609,321.535 170.500,321.913 169.400 C 322.910 166.498,322.920 150.447,321.927 147.200 C 321.557 145.990,321.048 143.840,320.795 142.422 C 320.543 141.004,320.017 139.204,319.626 138.422 C 319.235 137.640,318.798 136.385,318.654 135.633 C 318.415 134.378,316.847 130.636,315.961 129.200 C 315.757 128.870,315.219 127.790,314.766 126.800 C 314.313 125.810,313.707 124.730,313.419 124.400 C 313.130 124.070,312.763 123.350,312.601 122.800 C 312.440 122.250,311.981 121.440,311.581 121.000 C 311.181 120.560,310.654 119.673,310.409 119.028 C 309.321 116.156,299.982 106.474,295.600 103.676 C 291.285 100.920,285.693 98.003,284.711 97.996 C 284.430 97.994,283.300 97.550,282.200 97.009 C 281.100 96.468,279.815 96.019,279.344 96.013 C 278.873 96.006,276.713 95.536,274.544 94.970 C 270.114 93.813,252.466 93.598,250.573 94.678 C 250.118 94.938,248.118 95.432,246.129 95.778 C 244.140 96.123,241.975 96.673,241.318 97.001 C 240.660 97.329,239.184 97.775,238.037 97.993 C 236.890 98.210,235.563 98.661,235.087 98.994 C 234.611 99.327,233.920 99.600,233.552 99.600 C 233.183 99.600,231.888 100.122,230.675 100.761 C 229.461 101.399,227.921 102.042,227.253 102.188 C 226.584 102.335,225.624 102.777,225.119 103.169 C 224.613 103.562,223.539 104.099,222.732 104.362 C 221.925 104.626,221.048 105.102,220.783 105.420 C 220.518 105.739,220.085 106.000,219.820 106.000 C 219.554 106.000,218.496 106.540,217.469 107.200 C 216.441 107.860,214.745 108.933,213.700 109.584 C 211.063 111.228,209.242 112.488,208.430 113.229 C 208.051 113.576,206.549 114.710,205.092 115.749 C 203.635 116.789,200.735 119.307,198.647 121.344 C 194.116 125.766,192.000 126.940,192.000 125.032 C 192.000 124.420,189.008 118.509,188.245 117.614 C 187.957 117.276,187.616 116.702,187.488 116.337 C 186.613 113.860,177.422 103.657,173.672 101.000 C 172.740 100.340,171.685 99.530,171.326 99.200 C 168.994 97.056,159.558 92.684,155.200 91.728 C 153.770 91.415,151.790 90.864,150.800 90.504 C 148.761 89.762,130.314 89.420,123.200 89.992 " stroke="none" fill="#f5fbfb" fill-rule="evenodd"></path><path id="path1" d="M0.000 200.000 L 0.000 400.000 200.000 400.000 L 400.000 400.000 400.000 200.000 L 400.000 0.000 200.000 0.000 L 0.000 0.000 0.000 200.000 M150.800 90.504 C 151.790 90.864,153.770 91.415,155.200 91.728 C 159.558 92.684,168.994 97.056,171.326 99.200 C 171.685 99.530,172.740 100.340,173.672 101.000 C 177.422 103.657,186.613 113.860,187.488 116.337 C 187.616 116.702,187.957 117.276,188.245 117.614 C 189.008 118.509,192.000 124.420,192.000 125.032 C 192.000 126.940,194.116 125.766,198.647 121.344 C 200.735 119.307,203.635 116.789,205.092 115.749 C 206.549 114.710,208.051 113.576,208.430 113.229 C 209.242 112.488,211.063 111.228,213.700 109.584 C 214.745 108.933,216.441 107.860,217.469 107.200 C 218.496 106.540,219.554 106.000,219.820 106.000 C 220.085 106.000,220.518 105.739,220.783 105.420 C 221.048 105.102,221.925 104.626,222.732 104.362 C 223.539 104.099,224.613 103.562,225.119 103.169 C 225.624 102.777,226.584 102.335,227.253 102.188 C 227.921 102.042,229.461 101.399,230.675 100.761 C 231.888 100.122,233.183 99.600,233.552 99.600 C 233.920 99.600,234.611 99.327,235.087 98.994 C 235.563 98.661,236.890 98.210,238.037 97.993 C 239.184 97.775,240.660 97.329,241.318 97.001 C 241.975 96.673,244.140 96.123,246.129 95.778 C 248.118 95.432,250.118 94.938,250.573 94.678 C 252.466 93.598,270.114 93.813,274.544 94.970 C 276.713 95.536,278.873 96.006,279.344 96.013 C 279.815 96.019,281.100 96.468,282.200 97.009 C 283.300 97.550,284.430 97.994,284.711 97.996 C 285.693 98.003,291.285 100.920,295.600 103.676 C 299.982 106.474,309.321 116.156,310.409 119.028 C 310.654 119.673,311.181 120.560,311.581 121.000 C 311.981 121.440,312.440 122.250,312.601 122.800 C 312.763 123.350,313.130 124.070,313.419 124.400 C 313.707 124.730,314.313 125.810,314.766 126.800 C 315.219 127.790,315.757 128.870,315.961 129.200 C 316.847 130.636,318.415 134.378,318.654 135.633 C 318.798 136.385,319.235 137.640,319.626 138.422 C 320.017 139.204,320.543 141.004,320.795 142.422 C 321.048 143.840,321.557 145.990,321.927 147.200 C 322.920 150.447,322.910 166.498,321.913 169.400 C 321.535 170.500,321.037 172.609,320.807 174.086 C 320.577 175.564,320.049 177.364,319.632 178.086 C 319.216 178.809,318.755 180.155,318.607 181.077 C 318.459 181.999,318.083 182.965,317.772 183.224 C 317.460 183.482,317.008 184.437,316.766 185.347 C 316.524 186.256,316.091 187.270,315.804 187.600 C 315.518 187.930,314.949 188.851,314.542 189.646 C 312.638 193.360,311.612 195.092,311.031 195.574 C 310.684 195.862,310.400 196.277,310.400 196.496 C 310.400 196.715,309.905 197.488,309.300 198.214 C 308.695 198.940,307.574 200.404,306.808 201.467 C 300.546 210.161,283.673 225.308,270.600 233.971 C 269.280 234.846,267.660 235.936,267.000 236.393 C 264.077 238.419,262.167 239.586,261.762 239.593 C 261.521 239.597,260.985 239.975,260.570 240.433 C 260.155 240.891,259.273 241.522,258.608 241.834 C 257.944 242.147,256.590 242.939,255.600 243.594 C 254.610 244.250,253.170 245.100,252.400 245.484 C 251.630 245.868,250.522 246.546,249.939 246.991 C 249.355 247.436,247.943 248.340,246.800 249.000 C 245.657 249.660,244.219 250.605,243.603 251.100 C 242.988 251.595,242.371 252.000,242.233 252.000 C 241.081 252.000,233.549 258.364,232.239 260.444 C 231.505 261.609,231.785 262.054,233.600 262.606 C 234.150 262.773,235.026 263.243,235.546 263.649 C 236.067 264.055,237.057 264.555,237.746 264.760 C 238.436 264.964,240.530 265.798,242.400 266.612 C 244.270 267.426,246.520 268.267,247.400 268.482 C 248.280 268.696,249.990 269.140,251.200 269.469 C 253.694 270.146,254.649 270.342,263.000 271.889 C 270.611 273.298,297.918 273.533,304.400 272.245 C 306.270 271.873,310.119 271.313,312.954 270.999 C 315.788 270.685,318.965 270.144,320.013 269.796 C 322.517 268.964,322.633 269.038,330.504 276.573 C 339.173 284.873,339.265 285.168,333.200 285.213 C 331.330 285.226,326.650 285.498,322.800 285.816 C 306.309 287.178,303.906 287.276,292.200 287.063 C 285.600 286.942,279.120 286.658,277.800 286.431 C 276.480 286.204,272.159 285.756,268.197 285.436 C 264.235 285.116,260.481 284.659,259.855 284.421 C 259.228 284.183,257.039 283.718,254.989 283.388 C 252.938 283.058,250.482 282.435,249.531 282.003 C 248.579 281.571,247.373 281.214,246.850 281.209 C 245.373 281.195,237.733 277.760,234.043 275.450 C 223.903 269.103,219.262 254.755,224.131 244.808 C 226.049 240.889,236.089 231.200,238.231 231.200 C 238.490 231.200,238.935 230.919,239.221 230.575 C 239.506 230.232,240.653 229.374,241.770 228.670 C 242.886 227.967,244.160 227.162,244.600 226.884 C 245.040 226.605,245.909 226.067,246.531 225.689 C 249.690 223.766,251.845 222.396,252.238 222.060 C 252.478 221.854,253.288 221.368,254.038 220.981 C 254.787 220.593,255.850 219.968,256.400 219.591 C 256.950 219.215,258.300 218.349,259.400 217.669 C 260.500 216.988,261.940 216.055,262.600 215.596 C 263.260 215.137,264.880 214.047,266.200 213.173 C 267.520 212.299,269.950 210.595,271.600 209.386 C 273.250 208.177,275.041 206.876,275.581 206.495 C 276.120 206.114,276.947 205.442,277.417 205.001 C 277.888 204.561,279.244 203.390,280.431 202.400 C 286.288 197.514,294.877 188.022,295.868 185.340 C 296.018 184.933,296.538 184.060,297.024 183.400 C 297.510 182.740,298.039 181.750,298.201 181.200 C 298.362 180.650,298.727 179.930,299.010 179.600 C 299.294 179.270,299.734 178.219,299.988 177.264 C 300.242 176.310,300.785 174.870,301.195 174.064 C 301.604 173.259,302.119 170.980,302.339 169.000 C 302.559 167.020,303.055 164.050,303.441 162.400 C 304.474 157.981,304.522 135.104,303.503 132.380 C 303.129 131.379,302.556 129.309,302.231 127.780 C 301.026 122.120,295.579 113.478,290.951 109.886 C 286.639 106.538,285.870 106.000,285.399 106.000 C 285.129 106.000,284.472 105.657,283.940 105.239 C 283.407 104.820,282.258 104.284,281.386 104.048 C 280.514 103.813,279.087 103.255,278.215 102.810 C 277.344 102.364,276.138 102.000,275.535 102.000 C 274.932 102.000,273.536 101.806,272.432 101.570 C 269.929 101.033,263.697 101.926,261.256 103.172 C 260.363 103.627,259.343 104.000,258.991 104.000 C 258.409 104.000,254.169 105.815,252.200 106.908 C 251.760 107.152,250.590 107.780,249.600 108.303 C 245.541 110.449,244.196 111.296,239.600 114.605 C 238.830 115.159,237.750 115.926,237.200 116.310 C 234.615 118.112,224.326 128.223,219.807 133.400 C 213.774 140.314,206.847 146.828,203.480 148.754 C 201.201 150.058,201.130 150.071,195.690 150.113 L 190.200 150.156 187.108 148.667 C 182.700 146.544,179.521 143.181,177.401 138.400 C 177.060 137.630,176.608 136.730,176.397 136.400 C 175.964 135.721,173.572 130.919,172.612 128.800 C 172.264 128.030,171.358 126.320,170.599 125.000 C 169.840 123.680,169.050 122.221,168.842 121.757 C 168.634 121.294,167.774 119.872,166.932 118.598 C 166.089 117.325,165.040 115.698,164.600 114.984 C 162.437 111.472,162.245 111.241,157.316 106.200 C 153.862 102.667,149.028 98.823,146.885 97.904 C 146.288 97.648,145.350 97.140,144.800 96.775 C 144.250 96.410,143.080 95.879,142.200 95.595 C 141.320 95.311,140.240 94.850,139.800 94.570 C 139.360 94.290,137.357 93.781,135.348 93.439 C 133.339 93.097,131.206 92.630,130.607 92.403 C 128.084 91.443,119.961 91.392,119.250 92.330 C 118.847 92.863,117.872 93.325,116.686 93.546 C 115.633 93.742,114.463 94.176,114.086 94.511 C 113.709 94.846,112.770 95.416,112.000 95.778 C 102.876 100.064,91.921 110.856,89.378 118.063 C 89.090 118.877,88.591 119.961,88.267 120.472 C 87.943 120.982,87.549 122.030,87.390 122.800 C 87.232 123.570,86.783 124.831,86.393 125.603 C 86.002 126.375,85.475 128.714,85.221 130.802 C 84.967 132.890,84.593 135.318,84.390 136.199 C 83.896 138.335,83.900 147.362,84.395 149.976 C 84.613 151.122,84.977 154.037,85.205 156.452 C 85.433 158.868,85.888 161.599,86.217 162.522 C 86.546 163.445,87.077 165.526,87.397 167.147 C 87.717 168.767,88.148 170.297,88.354 170.547 C 88.560 170.796,89.030 172.170,89.398 173.600 C 89.766 175.030,90.308 176.470,90.603 176.800 C 90.897 177.130,91.265 177.940,91.422 178.600 C 91.688 179.725,92.630 181.811,94.133 184.600 C 94.489 185.260,95.156 186.606,95.615 187.592 C 96.075 188.578,96.594 189.478,96.769 189.592 C 96.945 189.706,97.389 190.387,97.756 191.104 C 98.124 191.821,98.960 193.171,99.615 194.104 C 100.269 195.037,101.638 197.030,102.656 198.534 C 103.674 200.038,104.809 201.568,105.177 201.934 C 105.546 202.300,107.277 204.306,109.024 206.391 C 115.016 213.543,126.430 224.209,132.639 228.458 C 133.760 229.226,134.930 230.064,135.239 230.321 C 137.119 231.885,142.142 235.402,145.527 237.524 C 146.337 238.031,147.810 238.977,148.800 239.624 C 149.790 240.272,151.358 241.166,152.283 241.612 C 153.209 242.058,154.072 242.593,154.200 242.800 C 154.328 243.007,155.191 243.544,156.117 243.993 C 157.042 244.442,159.600 245.781,161.800 246.968 C 166.636 249.577,170.459 251.492,174.200 253.178 C 175.740 253.873,177.837 254.882,178.859 255.420 C 179.881 255.959,180.997 256.400,181.338 256.400 C 181.679 256.400,182.804 256.850,183.838 257.400 C 184.873 257.950,186.007 258.401,186.360 258.401 C 186.712 258.402,187.585 258.760,188.300 259.196 C 189.016 259.632,190.410 260.193,191.400 260.442 C 197.650 262.016,197.929 262.557,197.966 273.200 C 197.980 277.270,198.111 287.014,198.257 294.853 C 198.552 310.739,198.474 311.223,195.943 309.246 C 195.424 308.841,194.576 308.377,194.059 308.215 C 193.541 308.053,192.481 307.488,191.703 306.960 C 190.925 306.432,190.136 306.000,189.951 306.000 C 189.413 306.000,174.248 297.415,168.400 293.800 C 167.190 293.052,165.570 292.062,164.800 291.599 C 161.080 289.365,160.403 288.926,159.726 288.314 C 159.326 287.952,158.549 287.462,157.999 287.226 C 157.450 286.990,156.190 286.171,155.200 285.405 C 154.210 284.640,152.758 283.664,151.973 283.236 C 151.189 282.808,150.311 282.175,150.024 281.829 C 149.737 281.483,149.324 281.200,149.106 281.200 C 148.888 281.200,148.145 280.736,147.455 280.170 C 146.339 279.253,142.664 276.579,138.876 273.927 C 137.637 273.059,135.524 271.437,133.200 269.569 C 132.650 269.127,130.940 267.777,129.400 266.569 C 124.918 263.055,123.920 262.240,123.240 261.543 C 122.888 261.182,121.790 260.216,120.800 259.397 C 114.156 253.902,104.396 244.491,98.656 238.045 C 92.775 231.441,87.600 225.236,87.600 224.788 C 87.600 224.575,87.285 224.079,86.900 223.687 C 85.848 222.615,83.955 220.069,82.532 217.811 C 81.835 216.705,80.924 215.350,80.509 214.800 C 79.835 213.907,79.037 212.597,76.732 208.600 C 76.351 207.940,75.673 206.659,75.225 205.753 C 74.776 204.847,74.156 203.895,73.847 203.639 C 73.537 203.382,73.170 202.566,73.031 201.826 C 72.892 201.086,72.523 200.268,72.210 200.008 C 71.897 199.748,71.430 198.875,71.172 198.068 C 70.914 197.261,70.381 196.060,69.988 195.400 C 69.595 194.740,69.062 193.390,68.804 192.400 C 68.546 191.410,68.094 190.224,67.800 189.764 C 67.506 189.304,67.062 188.134,66.813 187.164 C 66.565 186.194,66.032 184.590,65.630 183.600 C 65.228 182.610,64.779 180.841,64.632 179.670 C 64.485 178.498,64.030 176.692,63.622 175.657 C 63.214 174.621,62.677 172.105,62.429 170.065 C 62.181 168.025,61.706 165.330,61.374 164.078 C 60.425 160.502,60.521 149.927,61.544 145.378 C 61.986 143.410,62.465 140.900,62.607 139.800 C 62.750 138.700,63.193 137.054,63.592 136.142 C 63.991 135.230,64.443 133.914,64.596 133.218 C 64.891 131.874,66.962 127.430,68.733 124.338 C 69.320 123.314,70.139 121.874,70.553 121.138 C 71.408 119.620,75.889 114.201,78.275 111.800 C 82.374 107.677,89.459 102.000,90.507 102.000 C 90.709 102.000,91.352 101.630,91.937 101.177 C 94.034 99.554,96.612 98.014,97.244 98.007 C 97.598 98.003,98.551 97.550,99.362 97.000 C 100.172 96.450,101.059 96.000,101.333 96.000 C 101.607 96.000,102.544 95.632,103.415 95.182 C 104.287 94.733,105.900 94.171,107.000 93.933 C 108.100 93.696,109.662 93.167,110.470 92.758 C 111.279 92.349,112.989 91.897,114.270 91.754 C 115.552 91.611,117.230 91.225,118.000 90.896 C 121.228 89.517,147.231 89.206,150.800 90.504 " stroke="none" fill="#04b3e4" fill-rule="evenodd"></path></g></svg>